<svg height="800" width="1280">
        <defs><marker id="arrow" markerWidth="10" markerHeight="7" refX="0" refY="3.5" orient="auto" markerUnits="strokeWidth"> <polygon points="0 0, 10 3.5, 0 7" /> </marker></defs>
          <text x="128.0" y="20" font-size="2em" text-anchor="middle" alignment-baseline="central">,</text>
  <text x="384.0" y="20" font-size="2em" text-anchor="middle" alignment-baseline="central">C</text>
  <text x="640.0" y="20" font-size="2em" text-anchor="middle" alignment-baseline="central">G</text>
  <text x="896.0" y="20" font-size="2em" text-anchor="middle" alignment-baseline="central">G</text>
  <text x="1152.0" y="20" font-size="2em" text-anchor="middle" alignment-baseline="central">,</text>
          <circle cx = "128.0" cy = "133.3" r = "64.0" stroke = "black" stroke-width = "3" fill="rgb(0, 255, 0)"/>
  <circle cx = "128.0" cy = "400.0" r = "64.0" stroke = "black" stroke-width = "3" fill="rgb(255, 0, 0)"/>
  <circle cx = "128.0" cy = "666.7" r = "64.0" stroke = "black" stroke-width = "3" fill="rgb(255, 0, 0)"/>
  <circle cx = "384.0" cy = "133.3" r = "64.0" stroke = "black" stroke-width = "3" fill="rgb(255, 0, 0)"/>
  <circle cx = "384.0" cy = "400.0" r = "64.0" stroke = "black" stroke-width = "3" fill="rgb(0, 255, 0)"/>
  <circle cx = "384.0" cy = "666.7" r = "64.0" stroke = "black" stroke-width = "3" fill="rgb(255, 0, 0)"/>
  <circle cx = "640.0" cy = "133.3" r = "64.0" stroke = "black" stroke-width = "3" fill="rgb(255, 0, 0)"/>
  <circle cx = "640.0" cy = "400.0" r = "64.0" stroke = "black" stroke-width = "3" fill="rgb(255, 0, 0)"/>
  <circle cx = "640.0" cy = "666.7" r = "64.0" stroke = "black" stroke-width = "3" fill="rgb(0, 255, 0)"/>
  <circle cx = "896.0" cy = "133.3" r = "64.0" stroke = "black" stroke-width = "3" fill="rgb(255, 0, 0)"/>
  <circle cx = "896.0" cy = "400.0" r = "64.0" stroke = "black" stroke-width = "3" fill="rgb(255, 0, 0)"/>
  <circle cx = "896.0" cy = "666.7" r = "64.0" stroke = "black" stroke-width = "3" fill="rgb(127, 128, 0)"/>
  <circle cx = "1152.0" cy = "133.3" r = "64.0" stroke = "black" stroke-width = "3" fill="lightskyblue"/>
  <circle cx = "1152.0" cy = "400.0" r = "64.0" stroke = "black" stroke-width = "3" fill="rgb(255, 0, 0)"/>
  <circle cx = "1152.0" cy = "666.7" r = "64.0" stroke = "black" stroke-width = "3" fill="rgb(255, 0, 0)"/>
         <line x1="192.0" y1="133.3" x2="300.0" y2="133.3" stroke="#000" stroke-width="2" marker-end="url(#arrow)" />
 <line x1="192.0" y1="400.0" x2="300.0" y2="400.0" stroke="#000" stroke-width="2" marker-end="url(#arrow)" />
 <line x1="192.0" y1="666.7" x2="300.0" y2="666.7" stroke="#000" stroke-width="2" marker-end="url(#arrow)" />
 <line x1="448.0" y1="133.3" x2="556.0" y2="133.3" stroke="#000" stroke-width="2" marker-end="url(#arrow)" />
 <line x1="448.0" y1="400.0" x2="556.0" y2="400.0" stroke="#000" stroke-width="2" marker-end="url(#arrow)" />
 <line x1="448.0" y1="666.7" x2="556.0" y2="666.7" stroke="#000" stroke-width="2" marker-end="url(#arrow)" />
 <line x1="704.0" y1="133.3" x2="812.0" y2="133.3" stroke="#000" stroke-width="2" marker-end="url(#arrow)" />
 <line x1="704.0" y1="400.0" x2="812.0" y2="400.0" stroke="#000" stroke-width="2" marker-end="url(#arrow)" />
 <line x1="704.0" y1="666.7" x2="812.0" y2="666.7" stroke="#000" stroke-width="2" marker-end="url(#arrow)" />
 <line x1="960.0" y1="133.3" x2="1068.0" y2="133.3" stroke="#000" stroke-width="2" marker-end="url(#arrow)" />
 <line x1="960.0" y1="400.0" x2="1068.0" y2="400.0" stroke="#000" stroke-width="2" marker-end="url(#arrow)" />
 <line x1="960.0" y1="666.7" x2="1068.0" y2="666.7" stroke="#000" stroke-width="2" marker-end="url(#arrow)" />

         <line x1="192.0" y1="133.3" x2="313.0" y2="379.9666666666667" stroke="#000" stroke-width="2" marker-end="url(#arrow)"/>
 <line x1="192.0" y1="400.0" x2="313.0" y2="646.6666666666667" stroke="#000" stroke-width="2" marker-end="url(#arrow)"/>
 <line x1="448.0" y1="133.3" x2="569.0" y2="379.9666666666667" stroke="#000" stroke-width="2" marker-end="url(#arrow)"/>
 <line x1="448.0" y1="400.0" x2="569.0" y2="646.6666666666667" stroke="#000" stroke-width="2" marker-end="url(#arrow)"/>
 <line x1="704.0" y1="133.3" x2="825.0" y2="379.9666666666667" stroke="#000" stroke-width="2" marker-end="url(#arrow)"/>
 <line x1="704.0" y1="400.0" x2="825.0" y2="646.6666666666667" stroke="#000" stroke-width="2" marker-end="url(#arrow)"/>
 <line x1="960.0" y1="133.3" x2="1081.0" y2="379.9666666666667" stroke="#000" stroke-width="2" marker-end="url(#arrow)"/>
 <line x1="960.0" y1="400.0" x2="1081.0" y2="646.6666666666667" stroke="#000" stroke-width="2" marker-end="url(#arrow)"/>

         <line x1="192.0" y1="133.3" x2="313.0" y2="646.6333333333334" stroke="#000" stroke-width="2" marker-end="url(#arrow)"/>
 <line x1="448.0" y1="133.3" x2="569.0" y2="646.6333333333334" stroke="#000" stroke-width="2" marker-end="url(#arrow)"/>
 <line x1="704.0" y1="133.3" x2="825.0" y2="646.6333333333334" stroke="#000" stroke-width="2" marker-end="url(#arrow)"/>
 <line x1="960.0" y1="133.3" x2="1081.0" y2="646.6333333333334" stroke="#000" stroke-width="2" marker-end="url(#arrow)"/>

         <line x1="192.0" y1="400.0" x2="313.0" y2="153.33333333333331" stroke="#000" stroke-width="2" marker-end="url(#arrow)"/>
 <line x1="192.0" y1="666.7" x2="313.0" y2="420.03333333333336" stroke="#000" stroke-width="2" marker-end="url(#arrow)"/>
 <line x1="448.0" y1="400.0" x2="569.0" y2="153.33333333333331" stroke="#000" stroke-width="2" marker-end="url(#arrow)"/>
 <line x1="448.0" y1="666.7" x2="569.0" y2="420.03333333333336" stroke="#000" stroke-width="2" marker-end="url(#arrow)"/>
 <line x1="704.0" y1="400.0" x2="825.0" y2="153.33333333333331" stroke="#000" stroke-width="2" marker-end="url(#arrow)"/>
 <line x1="704.0" y1="666.7" x2="825.0" y2="420.03333333333336" stroke="#000" stroke-width="2" marker-end="url(#arrow)"/>
 <line x1="960.0" y1="400.0" x2="1081.0" y2="153.33333333333331" stroke="#000" stroke-width="2" marker-end="url(#arrow)"/>
 <line x1="960.0" y1="666.7" x2="1081.0" y2="420.03333333333336" stroke="#000" stroke-width="2" marker-end="url(#arrow)"/>

         <line x1="192.0" y1="666.7" x2="313.0" y2="153.36666666666667" stroke="#000" stroke-width="2" marker-end="url(#arrow)"/>
 <line x1="448.0" y1="666.7" x2="569.0" y2="153.36666666666667" stroke="#000" stroke-width="2" marker-end="url(#arrow)"/>
 <line x1="704.0" y1="666.7" x2="825.0" y2="153.36666666666667" stroke="#000" stroke-width="2" marker-end="url(#arrow)"/>
 <line x1="960.0" y1="666.7" x2="1081.0" y2="153.36666666666667" stroke="#000" stroke-width="2" marker-end="url(#arrow)"/>

        <text text-anchor="middle" alignment-baseline="central">
        <tspan x = "128.0" dy = "133.3">1.0</tspan>
        </text>
        
<text text-anchor="middle" alignment-baseline="central">
        <tspan x = "128.0" dy = "400.0">0.0</tspan>
        </text>
        
<text text-anchor="middle" alignment-baseline="central">
        <tspan x = "128.0" dy = "666.7">0.0</tspan>
        </text>
        
<text text-anchor="middle" alignment-baseline="central">
        <tspan x = "384.0" dy = "133.3">0.0</tspan>
        </text>
        
<text text-anchor="middle" alignment-baseline="central">
        <tspan x = "384.0" dy = "400.0">1.0</tspan>
        </text>
        
<text text-anchor="middle" alignment-baseline="central">
        <tspan x = "384.0" dy = "666.7">0.0</tspan>
        </text>
        
<text text-anchor="middle" alignment-baseline="central">
        <tspan x = "640.0" dy = "133.3">0.0</tspan>
        </text>
        
<text text-anchor="middle" alignment-baseline="central">
        <tspan x = "640.0" dy = "400.0">0.0</tspan>
        </text>
        
<text text-anchor="middle" alignment-baseline="central">
        <tspan x = "640.0" dy = "666.7">1.0</tspan>
        </text>
        
<text text-anchor="middle" alignment-baseline="central">
        <tspan x = "896.0" dy = "133.3">0.0</tspan>
        </text>
        
<text text-anchor="middle" alignment-baseline="central">
        <tspan x = "896.0" dy = "400.0">0.0</tspan>
        </text>
        
<text text-anchor="middle" alignment-baseline="central">
        <tspan x = "896.0" dy = "666.7">0.5</tspan>
        </text>
        
<text text-anchor="middle" alignment-baseline="central">
        <tspan x = "1152.0" dy = "133.3">0.25</tspan>
        </text>
        
<text text-anchor="middle" alignment-baseline="central">
        <tspan x = "1152.0" dy = "400.0">0.0</tspan>
        </text>
        
<text text-anchor="middle" alignment-baseline="central">
        <tspan x = "1152.0" dy = "666.7">0.0</tspan>
        </text>
        
        </svg>
        