<svg height="800" width="1280">
        <defs><marker id="arrow" markerWidth="10" markerHeight="7" refX="10" refY="3.5" orient="auto"> <polygon points="10 0, 10 7, 0 3.5" /> </marker></defs>
          <text x="128.0" y="20" font-size="2em" text-anchor="middle" alignment-baseline="central">,</text>
  <text x="384.0" y="20" font-size="2em" text-anchor="middle" alignment-baseline="central">C</text>
  <text x="640.0" y="20" font-size="2em" text-anchor="middle" alignment-baseline="central">G</text>
  <text x="896.0" y="20" font-size="2em" text-anchor="middle" alignment-baseline="central">G</text>
  <text x="1152.0" y="20" font-size="2em" text-anchor="middle" alignment-baseline="central">,</text>
          <circle cx = "128.0" cy = "133.3" r = "64.0" stroke = "black" stroke-width = "3" fill="lightskyblue"/>
  <circle cx = "128.0" cy = "400.0" r = "64.0" stroke = "black" stroke-width = "3" fill="rgb(249, 6, 0)"/>
  <circle cx = "128.0" cy = "666.7" r = "64.0" stroke = "black" stroke-width = "3" fill="rgb(252, 3, 0)"/>
  <circle cx = "384.0" cy = "133.3" r = "64.0" stroke = "black" stroke-width = "3" fill="rgb(221, 34, 0)"/>
  <circle cx = "384.0" cy = "400.0" r = "64.0" stroke = "black" stroke-width = "3" fill="rgb(225, 30, 0)"/>
  <circle cx = "384.0" cy = "666.7" r = "64.0" stroke = "black" stroke-width = "3" fill="rgb(241, 14, 0)"/>
  <circle cx = "640.0" cy = "133.3" r = "64.0" stroke = "black" stroke-width = "3" fill="rgb(213, 42, 0)"/>
  <circle cx = "640.0" cy = "400.0" r = "64.0" stroke = "black" stroke-width = "3" fill="rgb(170, 85, 0)"/>
  <circle cx = "640.0" cy = "666.7" r = "64.0" stroke = "black" stroke-width = "3" fill="rgb(220, 35, 0)"/>
  <circle cx = "896.0" cy = "133.3" r = "64.0" stroke = "black" stroke-width = "3" fill="rgb(255, 0, 0)"/>
  <circle cx = "896.0" cy = "400.0" r = "64.0" stroke = "black" stroke-width = "3" fill="rgb(255, 0, 0)"/>
  <circle cx = "896.0" cy = "666.7" r = "64.0" stroke = "black" stroke-width = "3" fill="rgb(119, 136, 0)"/>
  <circle cx = "1152.0" cy = "133.3" r = "64.0" stroke = "black" stroke-width = "3" fill="rgb(0, 255, 0)"/>
  <circle cx = "1152.0" cy = "400.0" r = "64.0" stroke = "black" stroke-width = "3" fill="rgb(255, 0, 0)"/>
  <circle cx = "1152.0" cy = "666.7" r = "64.0" stroke = "black" stroke-width = "3" fill="rgb(255, 0, 0)"/>
         <line x1="212.0" y1="133.3" x2="320.0" y2="133.3" stroke="#000" stroke-width="2" marker-start="url(#arrow)" />
 <line x1="212.0" y1="400.0" x2="320.0" y2="400.0" stroke="#000" stroke-width="2" marker-start="url(#arrow)" />
 <line x1="212.0" y1="666.7" x2="320.0" y2="666.7" stroke="#000" stroke-width="2" marker-start="url(#arrow)" />
 <line x1="468.0" y1="133.3" x2="576.0" y2="133.3" stroke="#000" stroke-width="2" marker-start="url(#arrow)" />
 <line x1="468.0" y1="400.0" x2="576.0" y2="400.0" stroke="#000" stroke-width="2" marker-start="url(#arrow)" />
 <line x1="468.0" y1="666.7" x2="576.0" y2="666.7" stroke="#000" stroke-width="2" marker-start="url(#arrow)" />
 <line x1="724.0" y1="133.3" x2="832.0" y2="133.3" stroke="#000" stroke-width="2" marker-start="url(#arrow)" />
 <line x1="724.0" y1="400.0" x2="832.0" y2="400.0" stroke="#000" stroke-width="2" marker-start="url(#arrow)" />
 <line x1="724.0" y1="666.7" x2="832.0" y2="666.7" stroke="#000" stroke-width="2" marker-start="url(#arrow)" />
 <line x1="980.0" y1="133.3" x2="1088.0" y2="133.3" stroke="#000" stroke-width="2" marker-start="url(#arrow)" />
 <line x1="980.0" y1="400.0" x2="1088.0" y2="400.0" stroke="#000" stroke-width="2" marker-start="url(#arrow)" />
 <line x1="980.0" y1="666.7" x2="1088.0" y2="666.7" stroke="#000" stroke-width="2" marker-start="url(#arrow)" />

         <line x1="199.0" y1="153.3" x2="320.0" y2="399.9666666666667" stroke="#000" stroke-width="2" marker-start="url(#arrow)"/>
 <line x1="199.0" y1="420.0" x2="320.0" y2="666.6666666666667" stroke="#000" stroke-width="2" marker-start="url(#arrow)"/>
 <line x1="455.0" y1="153.3" x2="576.0" y2="399.9666666666667" stroke="#000" stroke-width="2" marker-start="url(#arrow)"/>
 <line x1="455.0" y1="420.0" x2="576.0" y2="666.6666666666667" stroke="#000" stroke-width="2" marker-start="url(#arrow)"/>
 <line x1="711.0" y1="153.3" x2="832.0" y2="399.9666666666667" stroke="#000" stroke-width="2" marker-start="url(#arrow)"/>
 <line x1="711.0" y1="420.0" x2="832.0" y2="666.6666666666667" stroke="#000" stroke-width="2" marker-start="url(#arrow)"/>
 <line x1="967.0" y1="153.3" x2="1088.0" y2="399.9666666666667" stroke="#000" stroke-width="2" marker-start="url(#arrow)"/>
 <line x1="967.0" y1="420.0" x2="1088.0" y2="666.6666666666667" stroke="#000" stroke-width="2" marker-start="url(#arrow)"/>

         <line x1="199.0" y1="153.3" x2="320.0" y2="666.6333333333334" stroke="#000" stroke-width="2" marker-start="url(#arrow)"/>
 <line x1="455.0" y1="153.3" x2="576.0" y2="666.6333333333334" stroke="#000" stroke-width="2" marker-start="url(#arrow)"/>
 <line x1="711.0" y1="153.3" x2="832.0" y2="666.6333333333334" stroke="#000" stroke-width="2" marker-start="url(#arrow)"/>
 <line x1="967.0" y1="153.3" x2="1088.0" y2="666.6333333333334" stroke="#000" stroke-width="2" marker-start="url(#arrow)"/>

         <line x1="199.0" y1="380.0" x2="320.0" y2="133.33333333333331" stroke="#000" stroke-width="2" marker-start="url(#arrow)"/>
 <line x1="199.0" y1="646.7" x2="320.0" y2="400.03333333333336" stroke="#000" stroke-width="2" marker-start="url(#arrow)"/>
 <line x1="455.0" y1="380.0" x2="576.0" y2="133.33333333333331" stroke="#000" stroke-width="2" marker-start="url(#arrow)"/>
 <line x1="455.0" y1="646.7" x2="576.0" y2="400.03333333333336" stroke="#000" stroke-width="2" marker-start="url(#arrow)"/>
 <line x1="711.0" y1="380.0" x2="832.0" y2="133.33333333333331" stroke="#000" stroke-width="2" marker-start="url(#arrow)"/>
 <line x1="711.0" y1="646.7" x2="832.0" y2="400.03333333333336" stroke="#000" stroke-width="2" marker-start="url(#arrow)"/>
 <line x1="967.0" y1="380.0" x2="1088.0" y2="133.33333333333331" stroke="#000" stroke-width="2" marker-start="url(#arrow)"/>
 <line x1="967.0" y1="646.7" x2="1088.0" y2="400.03333333333336" stroke="#000" stroke-width="2" marker-start="url(#arrow)"/>

         <line x1="199.0" y1="646.7" x2="320.0" y2="133.36666666666667" stroke="#000" stroke-width="2" marker-start="url(#arrow)"/>
 <line x1="455.0" y1="646.7" x2="576.0" y2="133.36666666666667" stroke="#000" stroke-width="2" marker-start="url(#arrow)"/>
 <line x1="711.0" y1="646.7" x2="832.0" y2="133.36666666666667" stroke="#000" stroke-width="2" marker-start="url(#arrow)"/>
 <line x1="967.0" y1="646.7" x2="1088.0" y2="133.36666666666667" stroke="#000" stroke-width="2" marker-start="url(#arrow)"/>

        <text text-anchor="middle" alignment-baseline="central">
        <tspan x = "128.0" dy = "133.3">0.04407</tspan>
        </text>
        
<text text-anchor="middle" alignment-baseline="central">
        <tspan x = "128.0" dy = "400.0">0.02311</tspan>
        </text>
        
<text text-anchor="middle" alignment-baseline="central">
        <tspan x = "128.0" dy = "666.7">0.01298</tspan>
        </text>
        
<text text-anchor="middle" alignment-baseline="central">
        <tspan x = "384.0" dy = "133.3">0.13462</tspan>
        </text>
        
<text text-anchor="middle" alignment-baseline="central">
        <tspan x = "384.0" dy = "400.0">0.11804</tspan>
        </text>
        
<text text-anchor="middle" alignment-baseline="central">
        <tspan x = "384.0" dy = "666.7">0.05681</tspan>
        </text>
        
<text text-anchor="middle" alignment-baseline="central">
        <tspan x = "640.0" dy = "133.3">0.16347</tspan>
        </text>
        
<text text-anchor="middle" alignment-baseline="central">
        <tspan x = "640.0" dy = "400.0">0.33184</tspan>
        </text>
        
<text text-anchor="middle" alignment-baseline="central">
        <tspan x = "640.0" dy = "666.7">0.13725</tspan>
        </text>
        
<text text-anchor="middle" alignment-baseline="central">
        <tspan x = "896.0" dy = "133.3">0.0</tspan>
        </text>
        
<text text-anchor="middle" alignment-baseline="central">
        <tspan x = "896.0" dy = "400.0">0.0</tspan>
        </text>
        
<text text-anchor="middle" alignment-baseline="central">
        <tspan x = "896.0" dy = "666.7">0.53336</tspan>
        </text>
        
<text text-anchor="middle" alignment-baseline="central">
        <tspan x = "1152.0" dy = "133.3">1.0</tspan>
        </text>
        
<text text-anchor="middle" alignment-baseline="central">
        <tspan x = "1152.0" dy = "400.0">0.0</tspan>
        </text>
        
<text text-anchor="middle" alignment-baseline="central">
        <tspan x = "1152.0" dy = "666.7">0.0</tspan>
        </text>
        
        </svg>
        