<svg height="800" width="1280">
        <defs><marker id="arrow" markerWidth="10" markerHeight="7" refX="10" refY="3.5" orient="auto"> <polygon points="10 0, 10 7, 0 3.5" /> </marker></defs>
          <text x="128.0" y="20" font-size="2em" text-anchor="middle" alignment-baseline="central">,</text>
  <text x="384.0" y="20" font-size="2em" text-anchor="middle" alignment-baseline="central">C</text>
  <text x="640.0" y="20" font-size="2em" text-anchor="middle" alignment-baseline="central">G</text>
  <text x="896.0" y="20" font-size="2em" text-anchor="middle" alignment-baseline="central">G</text>
  <text x="1152.0" y="20" font-size="2em" text-anchor="middle" alignment-baseline="central">,</text>
          <circle cx = "128.0" cy = "133.3" r = "64.0" stroke = "black" stroke-width = "3" fill="lightskyblue"/>
  <circle cx = "128.0" cy = "400.0" r = "64.0" stroke = "black" stroke-width = "3" fill="rgb(246, 9, 0)"/>
  <circle cx = "128.0" cy = "666.7" r = "64.0" stroke = "black" stroke-width = "3" fill="rgb(254, 1, 0)"/>
  <circle cx = "384.0" cy = "133.3" r = "64.0" stroke = "black" stroke-width = "3" fill="rgb(227, 28, 0)"/>
  <circle cx = "384.0" cy = "400.0" r = "64.0" stroke = "black" stroke-width = "3" fill="rgb(207, 48, 0)"/>
  <circle cx = "384.0" cy = "666.7" r = "64.0" stroke = "black" stroke-width = "3" fill="rgb(232, 23, 0)"/>
  <circle cx = "640.0" cy = "133.3" r = "64.0" stroke = "black" stroke-width = "3" fill="rgb(241, 14, 0)"/>
  <circle cx = "640.0" cy = "400.0" r = "64.0" stroke = "black" stroke-width = "3" fill="rgb(150, 105, 0)"/>
  <circle cx = "640.0" cy = "666.7" r = "64.0" stroke = "black" stroke-width = "3" fill="rgb(198, 57, 0)"/>
  <circle cx = "896.0" cy = "133.3" r = "64.0" stroke = "black" stroke-width = "3" fill="rgb(255, 0, 0)"/>
  <circle cx = "896.0" cy = "400.0" r = "64.0" stroke = "black" stroke-width = "3" fill="rgb(255, 0, 0)"/>
  <circle cx = "896.0" cy = "666.7" r = "64.0" stroke = "black" stroke-width = "3" fill="rgb(115, 140, 0)"/>
  <circle cx = "1152.0" cy = "133.3" r = "64.0" stroke = "black" stroke-width = "3" fill="rgb(0, 255, 0)"/>
  <circle cx = "1152.0" cy = "400.0" r = "64.0" stroke = "black" stroke-width = "3" fill="rgb(255, 0, 0)"/>
  <circle cx = "1152.0" cy = "666.7" r = "64.0" stroke = "black" stroke-width = "3" fill="rgb(255, 0, 0)"/>
         <line x1="212.0" y1="133.3" x2="320.0" y2="133.3" stroke="#000" stroke-width="2" marker-start="url(#arrow)" />
 <line x1="212.0" y1="400.0" x2="320.0" y2="400.0" stroke="#000" stroke-width="2" marker-start="url(#arrow)" />
 <line x1="212.0" y1="666.7" x2="320.0" y2="666.7" stroke="#000" stroke-width="2" marker-start="url(#arrow)" />
 <line x1="468.0" y1="133.3" x2="576.0" y2="133.3" stroke="#000" stroke-width="2" marker-start="url(#arrow)" />
 <line x1="468.0" y1="400.0" x2="576.0" y2="400.0" stroke="#000" stroke-width="2" marker-start="url(#arrow)" />
 <line x1="468.0" y1="666.7" x2="576.0" y2="666.7" stroke="#000" stroke-width="2" marker-start="url(#arrow)" />
 <line x1="724.0" y1="133.3" x2="832.0" y2="133.3" stroke="#000" stroke-width="2" marker-start="url(#arrow)" />
 <line x1="724.0" y1="400.0" x2="832.0" y2="400.0" stroke="#000" stroke-width="2" marker-start="url(#arrow)" />
 <line x1="724.0" y1="666.7" x2="832.0" y2="666.7" stroke="#000" stroke-width="2" marker-start="url(#arrow)" />
 <line x1="980.0" y1="133.3" x2="1088.0" y2="133.3" stroke="#000" stroke-width="2" marker-start="url(#arrow)" />
 <line x1="980.0" y1="400.0" x2="1088.0" y2="400.0" stroke="#000" stroke-width="2" marker-start="url(#arrow)" />
 <line x1="980.0" y1="666.7" x2="1088.0" y2="666.7" stroke="#000" stroke-width="2" marker-start="url(#arrow)" />

         <line x1="199.0" y1="153.3" x2="320.0" y2="399.9666666666667" stroke="#000" stroke-width="2" marker-start="url(#arrow)"/>
 <line x1="199.0" y1="420.0" x2="320.0" y2="666.6666666666667" stroke="#000" stroke-width="2" marker-start="url(#arrow)"/>
 <line x1="455.0" y1="153.3" x2="576.0" y2="399.9666666666667" stroke="#000" stroke-width="2" marker-start="url(#arrow)"/>
 <line x1="455.0" y1="420.0" x2="576.0" y2="666.6666666666667" stroke="#000" stroke-width="2" marker-start="url(#arrow)"/>
 <line x1="711.0" y1="153.3" x2="832.0" y2="399.9666666666667" stroke="#000" stroke-width="2" marker-start="url(#arrow)"/>
 <line x1="711.0" y1="420.0" x2="832.0" y2="666.6666666666667" stroke="#000" stroke-width="2" marker-start="url(#arrow)"/>
 <line x1="967.0" y1="153.3" x2="1088.0" y2="399.9666666666667" stroke="#000" stroke-width="2" marker-start="url(#arrow)"/>
 <line x1="967.0" y1="420.0" x2="1088.0" y2="666.6666666666667" stroke="#000" stroke-width="2" marker-start="url(#arrow)"/>

         <line x1="199.0" y1="153.3" x2="320.0" y2="666.6333333333334" stroke="#000" stroke-width="2" marker-start="url(#arrow)"/>
 <line x1="455.0" y1="153.3" x2="576.0" y2="666.6333333333334" stroke="#000" stroke-width="2" marker-start="url(#arrow)"/>
 <line x1="711.0" y1="153.3" x2="832.0" y2="666.6333333333334" stroke="#000" stroke-width="2" marker-start="url(#arrow)"/>
 <line x1="967.0" y1="153.3" x2="1088.0" y2="666.6333333333334" stroke="#000" stroke-width="2" marker-start="url(#arrow)"/>

         <line x1="199.0" y1="380.0" x2="320.0" y2="133.33333333333331" stroke="#000" stroke-width="2" marker-start="url(#arrow)"/>
 <line x1="199.0" y1="646.7" x2="320.0" y2="400.03333333333336" stroke="#000" stroke-width="2" marker-start="url(#arrow)"/>
 <line x1="455.0" y1="380.0" x2="576.0" y2="133.33333333333331" stroke="#000" stroke-width="2" marker-start="url(#arrow)"/>
 <line x1="455.0" y1="646.7" x2="576.0" y2="400.03333333333336" stroke="#000" stroke-width="2" marker-start="url(#arrow)"/>
 <line x1="711.0" y1="380.0" x2="832.0" y2="133.33333333333331" stroke="#000" stroke-width="2" marker-start="url(#arrow)"/>
 <line x1="711.0" y1="646.7" x2="832.0" y2="400.03333333333336" stroke="#000" stroke-width="2" marker-start="url(#arrow)"/>
 <line x1="967.0" y1="380.0" x2="1088.0" y2="133.33333333333331" stroke="#000" stroke-width="2" marker-start="url(#arrow)"/>
 <line x1="967.0" y1="646.7" x2="1088.0" y2="400.03333333333336" stroke="#000" stroke-width="2" marker-start="url(#arrow)"/>

         <line x1="199.0" y1="646.7" x2="320.0" y2="133.36666666666667" stroke="#000" stroke-width="2" marker-start="url(#arrow)"/>
 <line x1="455.0" y1="646.7" x2="576.0" y2="133.36666666666667" stroke="#000" stroke-width="2" marker-start="url(#arrow)"/>
 <line x1="711.0" y1="646.7" x2="832.0" y2="133.36666666666667" stroke="#000" stroke-width="2" marker-start="url(#arrow)"/>
 <line x1="967.0" y1="646.7" x2="1088.0" y2="133.36666666666667" stroke="#000" stroke-width="2" marker-start="url(#arrow)"/>

        <text text-anchor="middle" alignment-baseline="central">
        <tspan x = "128.0" dy = "133.3">0.12752</tspan>
        </text>
        
<text text-anchor="middle" alignment-baseline="central">
        <tspan x = "128.0" dy = "400.0">0.03374</tspan>
        </text>
        
<text text-anchor="middle" alignment-baseline="central">
        <tspan x = "128.0" dy = "666.7">0.00524</tspan>
        </text>
        
<text text-anchor="middle" alignment-baseline="central">
        <tspan x = "384.0" dy = "133.3">0.11082</tspan>
        </text>
        
<text text-anchor="middle" alignment-baseline="central">
        <tspan x = "384.0" dy = "400.0">0.18671</tspan>
        </text>
        
<text text-anchor="middle" alignment-baseline="central">
        <tspan x = "384.0" dy = "666.7">0.09189</tspan>
        </text>
        
<text text-anchor="middle" alignment-baseline="central">
        <tspan x = "640.0" dy = "133.3">0.05323</tspan>
        </text>
        
<text text-anchor="middle" alignment-baseline="central">
        <tspan x = "640.0" dy = "400.0">0.41085</tspan>
        </text>
        
<text text-anchor="middle" alignment-baseline="central">
        <tspan x = "640.0" dy = "666.7">0.22237</tspan>
        </text>
        
<text text-anchor="middle" alignment-baseline="central">
        <tspan x = "896.0" dy = "133.3">0.0</tspan>
        </text>
        
<text text-anchor="middle" alignment-baseline="central">
        <tspan x = "896.0" dy = "400.0">0.0</tspan>
        </text>
        
<text text-anchor="middle" alignment-baseline="central">
        <tspan x = "896.0" dy = "666.7">0.55083</tspan>
        </text>
        
<text text-anchor="middle" alignment-baseline="central">
        <tspan x = "1152.0" dy = "133.3">1.0</tspan>
        </text>
        
<text text-anchor="middle" alignment-baseline="central">
        <tspan x = "1152.0" dy = "400.0">0.0</tspan>
        </text>
        
<text text-anchor="middle" alignment-baseline="central">
        <tspan x = "1152.0" dy = "666.7">0.0</tspan>
        </text>
        
        </svg>
        